#Comment line ignore any data following # character
#Hierarchical Translation and Rotation (.htr) file
[Header]		#Header keywords are followed by a single value
FileType htr		#Single word string
DataType HTRS		#Translation followed by rotation and scale data
FileVersion 1		#integer
NumSegments 15		#integer
NumFrames 10		#integer
DataFrameRate 60		#integer, data frame rate in this file
EulerRotationOrder ZYX
CalibrationUnits mm
RotationUnits Degrees
GlobalAxisofGravity Y
BoneLengthAxis Y
ScaleFactor 1.000000
[SegmentNames&Hierarchy]
#CHILD	PARENT
1cou	1buste
1buste	1bassin
1brasG	1buste
1brasD	1buste
1avbrasG	1brasG
1avbrasD	1brasD
1mainG	1avbrasG
1mainD	1avbrasD
1bassin	GLOBAL
1cuisseG	1bassin
1cuisseD	1bassin
1moletG	1cuisseG
1moletD	1cuisseD
1piedG	1moletG
1piedD	1moletD
[BasePosition]
#SegmentName Tx, Ty, Tz, Rx, Ry, Rz, BoneLength
1cou	0.000002	394.639771	0.000003	47.447697	-6.500580	2.097482	232.574402
1buste	0.331046	98.159424	9.920088	5.813737	-6.959647	-0.900074	394.639771
1brasG	222.293304	333.760773	-3.143221	-5.521868	-4.449825	-174.025208	338.016541
1brasD	-186.675308	347.235016	-30.968008	-5.508482	16.777920	169.824814	318.101379
1avbrasG	0.000004	338.016571	-0.000002	34.403133	17.432653	23.106703	253.821075
1avbrasD	-0.000007	318.101410	-0.000013	32.381824	-10.529597	-11.344105	276.946075
1mainG	0.000006	253.821091	-0.000001	-3.773718	-0.485368	-1.748444	73.639816
1mainD	-0.000031	276.946106	-0.000010	-3.909555	0.199285	0.225476	80.942635
1bassin	396.031860	1037.839600	833.112305	178.297836	19.764000	-179.799622	97.859962
1cuisseG	108.625954	-0.934603	-40.474510	172.403458	-4.353497	-0.165467	517.714233
1cuisseD	-106.972656	-1.326527	-48.733826	172.076172	-12.757409	2.045154	501.698334
1moletG	0.000006	517.714233	-0.000009	157.872192	5.331374	176.676331	488.075745
1moletD	-0.000005	501.698303	0.000003	156.316269	3.295414	-177.725830	511.880615
1piedG	0.000002	488.075745	-0.000006	99.880898	-0.000004	0.000000	242.425140
1piedD	-0.000009	511.880646	-0.000013	102.622849	0.000000	0.000000	237.138092
#Beginning of Data. Separated by tabs
[1cou]
#Fr	Tx	Ty	Tz	Rx	Ry	Rz	SF
13	-0.000006	-40.910828	0.000020	-17.408358	-1.665054	-4.716257	0.953620
14	0.000001	-40.542572	0.000015	-17.721123	-1.626307	-4.778431	0.953683
15	-0.000014	-40.224182	-0.000038	-18.249445	-1.645389	-4.693088	0.952128
16	-0.000009	-40.268036	-0.000019	-18.696045	-1.733035	-4.503508	0.949244
17	-0.000016	-40.462585	-0.000020	-19.081400	-1.811943	-4.256615	0.948510
18	-0.000018	-40.979401	0.000014	-19.344110	-1.839859	-4.317716	0.947254
19	-0.000003	-41.433044	-0.000008	-19.547642	-1.799362	-4.268146	0.946089
20	-0.000005	-41.790436	-0.000006	-19.656355	-1.832578	-4.190665	0.945171
21	0.000005	-42.053772	-0.000010	-19.653591	-2.070659	-3.714389	0.946210
22	-0.000006	-41.907135	-0.000009	-19.637007	-2.266559	-3.228139	0.948071
[1buste]
#Fr	Tx	Ty	Tz	Rx	Ry	Rz	SF
13	0.269946	-13.103699	14.275442	10.305660	13.754786	1.026684	0.896334
14	0.788806	-13.126274	14.669718	10.519975	13.816464	0.720489	0.897267
15	1.213337	-13.215530	15.235470	10.854874	13.708995	0.459531	0.898074
16	1.486268	-13.319450	15.527634	11.024339	13.455779	0.248938	0.897962
17	1.734280	-13.456551	15.794706	11.194586	13.383221	0.088330	0.897470
18	1.966047	-13.605751	15.821466	11.220491	13.394907	-0.062779	0.896160
19	2.111298	-13.809334	16.085440	11.409872	13.306521	-0.158448	0.895011
20	2.131382	-13.938202	16.197680	11.500887	13.239204	-0.177300	0.894105
21	2.176507	-13.958939	16.037464	11.419739	13.659416	-0.132452	0.893438
22	2.141982	-13.901512	15.978851	11.390452	13.983327	-0.046760	0.893809
[1brasG]
#Fr	Tx	Ty	Tz	Rx	Ry	Rz	SF
13	-56.571457	-36.105927	2.724790	42.131466	-26.600046	-5.211291	0.877025
14	-56.169006	-35.960388	2.830287	41.751167	-26.480160	-4.680967	0.876484
15	-55.953018	-35.717194	2.695825	41.464710	-26.227285	-3.819964	0.876077
16	-55.903152	-35.477997	2.066591	41.278774	-25.931246	-2.816113	0.877532
17	-56.085052	-35.257385	2.123069	41.343552	-25.410490	-1.686176	0.880963
18	-56.204987	-35.149048	2.277826	41.664890	-24.832411	-0.612369	0.885110
19	-56.406372	-34.949097	2.450632	42.130810	-24.174700	0.761871	0.886730
20	-56.608902	-34.735901	2.995809	42.601261	-23.377741	2.216680	0.886713
21	-56.714645	-34.129791	4.045944	43.528152	-22.589689	2.778142	0.886790
22	-56.680420	-33.244812	5.248726	44.840408	-21.911867	2.625572	0.887764
[1brasD]
#Fr	Tx	Ty	Tz	Rx	Ry	Rz	SF
13	14.142670	-52.191986	45.646698	40.763329	5.021055	11.776984	0.914864
14	14.095108	-51.125366	46.271667	40.781071	4.862207	11.504642	0.913641
15	14.418396	-49.714081	47.788216	40.850060	4.769314	11.011430	0.910638
16	13.935410	-48.329529	47.877266	41.023808	4.592798	10.573739	0.910181
17	13.567230	-47.481171	48.899780	41.038582	4.636369	9.819031	0.907382
18	14.123047	-47.026764	50.505608	41.055088	4.711066	8.557220	0.904952
19	13.935699	-46.754242	50.685974	41.390686	4.628429	7.422958	0.903795
20	13.835251	-46.616241	50.773552	41.768593	4.666940	6.357687	0.903416
21	13.370834	-47.153778	50.908066	42.102325	4.868458	5.574362	0.901236
22	13.211899	-47.528015	50.876541	42.680565	5.144495	5.312103	0.900237
[1avbrasG]
#Fr	Tx	Ty	Tz	Rx	Ry	Rz	SF
13	-0.000014	-41.567505	-0.000021	18.976057	-40.741039	-22.714319	1.115103
14	-0.000017	-41.750549	-0.000017	21.681725	-41.589432	-24.462219	1.121064
15	-0.000003	-41.888000	-0.000002	24.898659	-42.344368	-26.532272	1.127623
16	0.000011	-41.396057	-0.000002	27.982498	-42.473228	-28.164972	1.133277
17	0.000002	-40.236572	0.000038	30.629322	-42.012707	-29.105232	1.136117
18	-0.000020	-38.834686	0.000015	32.665722	-41.161720	-29.317568	1.137120
19	-0.000026	-38.287201	0.000021	34.160664	-40.210922	-29.094553	1.139293
20	-0.000002	-38.293060	0.000006	35.277157	-39.242256	-28.582743	1.141482
21	-0.000020	-38.266968	0.000025	35.484787	-37.884312	-27.028461	1.141624
22	-0.000013	-37.937622	-0.000024	35.347054	-36.681606	-25.430885	1.139298
[1avbrasD]
#Fr	Tx	Ty	Tz	Rx	Ry	Rz	SF
13	0.000017	-27.082031	0.000031	20.526091	14.861670	7.398278	1.002463
14	0.000005	-27.471100	0.000022	20.930283	15.215880	7.773679	1.004375
15	0.000004	-28.426056	0.000024	21.774853	15.866904	8.489211	1.006940
16	0.000005	-28.571411	0.000001	22.762657	16.514086	9.242694	1.008978
17	-0.000020	-29.461884	0.000035	24.329277	17.207710	10.217418	1.011971
18	0.000010	-30.234955	0.000011	26.223436	17.810480	11.235707	1.013653
19	0.000008	-30.602814	0.000008	28.112101	18.002586	11.885150	1.015639
20	-0.000005	-30.723389	0.000005	30.018208	18.002966	12.365535	1.016571
21	0.000010	-31.416870	0.000019	31.975143	17.873138	12.727218	1.017752
22	-0.000009	-31.734711	0.000005	33.771988	17.670092	12.940937	1.017667
[1mainG]
#Fr	Tx	Ty	Tz	Rx	Ry	Rz	SF
13	-0.000009	29.215439	-0.000002	0.390984	0.409763	2.167857	1.107357
14	0.000010	30.728470	0.000002	0.479073	0.413408	2.220067	1.111678
15	-0.000003	32.393478	-0.000022	0.582965	0.414726	2.267088	1.116340
16	0.000002	33.828445	0.000002	0.689698	0.412416	2.281776	1.119937
17	-0.000011	34.549454	-0.000005	0.789393	0.406761	2.265594	1.120628
18	-0.000002	34.804031	0.000017	0.879868	0.400601	2.228153	1.119590
19	-0.000017	35.355362	0.000016	0.962532	0.393938	2.185215	1.120104
20	-0.000020	35.911148	0.000011	1.035789	0.388206	2.141276	1.120918
21	-0.000025	35.947037	0.000021	1.091193	0.383562	2.079395	1.119886
22	0.000025	35.356796	0.000007	1.127613	0.380592	2.026358	1.116618
[1mainD]
#Fr	Tx	Ty	Tz	Rx	Ry	Rz	SF
13	0.000031	0.682068	0.000020	0.847502	-0.147738	-0.722483	0.978549
14	0.000034	1.211731	0.000016	0.872488	-0.149758	-0.737391	0.980199
15	0.000033	1.921936	-0.000009	0.920086	-0.151750	-0.766919	0.982187
16	0.000050	2.486359	-0.000015	0.971835	-0.155003	-0.795003	0.983546
17	0.000026	3.315399	-0.000031	1.056502	-0.156576	-0.824155	0.985396
18	0.000045	3.781036	-0.000003	1.155231	-0.157141	-0.852032	0.985667
19	0.000031	4.331116	-0.000011	1.254406	-0.158823	-0.860558	0.986280
20	0.000065	4.589355	0.000021	1.356036	-0.159967	-0.861274	0.985790
21	0.000031	4.916351	0.000011	1.464393	-0.161169	-0.854958	0.985543
22	0.000021	4.892700	0.000033	1.567682	-0.162062	-0.846927	0.984107
[1bassin]
#Fr	Tx	Ty	Tz	Rx	Ry	Rz	SF
13	-64.756622	-92.814209	-1296.313599	178.784943	-73.237206	-151.310471	0.922226
14	-66.206879	-90.526855	-1296.717285	179.650421	-73.137062	-152.127045	0.918939
15	-68.705139	-88.143372	-1297.696533	-179.599808	-73.176888	-152.702606	0.915702
16	-70.860840	-87.078064	-1298.074341	-179.120407	-73.354607	-152.859024	0.914104
17	-73.251770	-87.384399	-1298.257446	-178.929581	-73.514954	-152.718323	0.912354
18	-75.410156	-89.677795	-1298.248291	-178.758865	-73.611557	-152.479294	0.911280
19	-77.909180	-93.852844	-1298.724731	-178.754471	-73.772026	-152.201614	0.911244
20	-80.040833	-100.650085	-1299.251709	-178.871521	-73.940460	-151.846222	0.913916
21	-82.264709	-109.629150	-1299.195435	-179.315765	-73.724617	-151.100967	0.913564
22	-85.012360	-120.036438	-1299.300293	-179.739258	-73.539665	-150.449570	0.913975
[1cuisseG]
#Fr	Tx	Ty	Tz	Rx	Ry	Rz	SF
13	-5.580353	-1.970948	-6.058907	-49.685593	-21.779551	-8.598376	0.991118
14	-6.008904	-1.908375	-6.353020	-49.981537	-22.018206	-8.627547	0.991187
15	-6.497498	-1.921239	-7.017693	-50.740372	-22.362602	-8.396140	0.989849
16	-6.685867	-1.900165	-7.178558	-51.563927	-22.571272	-8.349416	0.985028
17	-6.894218	-1.887675	-7.395111	-52.377533	-22.812351	-8.446806	0.980888
18	-6.975410	-1.841692	-7.568153	-53.099995	-23.117441	-8.398743	0.978105
19	-6.975723	-1.850915	-7.795189	-53.563469	-23.077402	-8.464746	0.979456
20	-6.607758	-1.836205	-7.649994	-53.632915	-22.628891	-8.889338	0.981272
21	-6.576408	-1.809703	-7.740997	-53.618362	-22.308054	-10.014760	0.983130
22	-6.496544	-1.804775	-7.667797	-54.036839	-22.421949	-10.395179	0.983646
[1cuisseD]
#Fr	Tx	Ty	Tz	Rx	Ry	Rz	SF
13	3.302353	-1.710853	5.339569	-47.470211	-6.592474	-6.791956	1.124325
14	3.552582	-1.876248	5.954807	-47.737263	-6.745537	-6.836087	1.124823
15	3.635216	-1.981221	7.332642	-48.225071	-6.835341	-6.834282	1.123769
16	3.730064	-2.075858	7.649342	-48.925426	-6.667969	-7.209397	1.123519
17	3.814690	-2.154134	8.060196	-49.703091	-6.550543	-7.609282	1.122557
18	3.840210	-2.218543	8.174480	-50.637241	-6.511967	-7.937080	1.120266
19	3.709969	-2.257695	8.605152	-51.587849	-6.459449	-8.029348	1.116023
20	3.424286	-2.282566	8.340286	-52.623989	-6.336865	-8.149775	1.111960
21	3.428368	-2.298145	8.074459	-53.713360	-6.597619	-8.401739	1.108520
22	3.422318	-2.301528	7.777962	-54.847057	-6.885624	-8.456380	1.103897
[1moletG]
#Fr	Tx	Ty	Tz	Rx	Ry	Rz	SF
13	-0.000003	-4.598450	0.000020	-33.455647	-9.147867	-1.248532	0.930960
14	-0.000007	-4.562866	-0.000014	-33.793091	-9.207473	-1.509850	0.933380
15	-0.000016	-5.255127	0.000034	-34.124203	-8.683582	-1.604155	0.927941
16	-0.000036	-7.750977	0.000060	-34.383316	-7.177485	-1.988837	0.919462
17	-0.000013	-9.894623	0.000012	-34.730980	-4.062568	-2.705132	0.917377
18	-0.000007	-11.335327	0.000039	-34.825352	0.280528	-3.280133	0.920985
19	0.000005	-10.635773	-0.000026	-34.858955	3.745925	-3.161246	0.925594
20	0.000008	-9.695923	0.000020	-34.836678	5.535205	-3.017338	0.930962
21	0.000021	-8.733795	-0.000006	-35.317478	4.862808	-3.320175	0.933888
22	-0.000012	-8.466827	0.000013	-36.009914	3.872020	-3.269475	0.924901
[1moletD]
#Fr	Tx	Ty	Tz	Rx	Ry	Rz	SF
13	-0.000048	62.373718	-0.000005	-37.614479	6.131928	-0.515058	0.885966
14	0.000018	62.623352	-0.000049	-37.753014	6.085768	-0.917997	0.884747
15	-0.000008	62.094971	0.000039	-37.982433	6.210020	-1.201781	0.882544
16	-0.000033	61.969177	0.000040	-38.497883	6.074357	-1.761813	0.880116
17	0.000011	61.486877	0.000044	-39.249157	5.939941	-2.237856	0.878939
18	0.000018	60.337463	0.000007	-40.147839	5.836740	-2.541483	0.879044
19	0.000043	58.208679	-0.000014	-41.152435	5.812065	-2.495628	0.879523
20	-0.000005	56.169983	0.000044	-42.459415	5.741856	-2.476069	0.879931
21	0.000009	54.444031	-0.000016	-43.952126	5.598264	-2.456311	0.880488
22	0.000003	52.125244	0.000018	-45.442780	5.422166	-2.203270	0.880968
[1piedG]
#Fr	Tx	Ty	Tz	Rx	Ry	Rz	SF
13	-0.000004	-33.696899	0.000030	3.725694	0.000000	-0.000000	1.027051
14	-0.000009	-32.515625	0.000060	2.750070	-0.000001	-0.000005	1.025689
15	-0.000011	-35.170258	0.000037	0.667441	-0.000001	-0.000005	1.020761
16	-0.000011	-39.308838	-0.000006	-1.782425	-0.000001	-0.000005	1.014513
17	-0.000003	-40.326385	0.000005	-2.986079	-0.000001	-0.000003	1.015260
18	-0.000003	-38.565063	0.000023	-2.828871	-0.000001	-0.000003	1.014754
19	-0.000000	-36.315826	0.000017	-1.528409	-0.000000	-0.000002	1.013446
20	0.000001	-33.695892	-0.000027	0.903861	-0.000001	-0.000009	1.013341
21	-0.000014	-32.267639	0.000022	3.634836	-0.000000	-0.000000	1.018628
22	-0.000010	-36.653931	0.000045	4.707830	0.000000	0.000001	1.021104
[1piedD]
#Fr	Tx	Ty	Tz	Rx	Ry	Rz	SF
13	-0.000003	-58.371948	-0.000009	10.434216	-0.000000	0.000000	1.053559
14	-0.000008	-58.995667	0.000007	9.680130	0.000000	-0.000004	1.052514
15	-0.000008	-60.123749	0.000067	8.643892	-0.000000	0.000005	1.048197
16	-0.000005	-61.366058	0.000007	7.753545	0.000000	-0.000004	1.044511
17	0.000007	-61.968689	0.000028	7.015211	-0.000000	-0.000002	1.042795
18	-0.000010	-61.915100	0.000022	6.718822	-0.000001	-0.000002	1.042606
19	-0.000025	-61.669983	0.000006	6.456632	-0.000001	0.000000	1.040412
20	0.000002	-61.461121	0.000060	6.614551	-0.000000	-0.000001	1.039597
21	-0.000006	-61.175873	-0.000000	7.108408	-0.000001	-0.000004	1.037249
22	0.000002	-60.930237	-0.000003	7.682606	-0.000000	0.000000	1.031301
[EndOfFile]
